<svg xmlns="http://www.w3.org/2000/svg" enable-background="new -360.158 -117.212 3000 3000" viewBox="-360.158 -117.212 3000 3000" id="reopen-the-online-shop"><path fill="#DCF4E6" d="M2172.84,2308.57H177.907c21.054-140.195,96.572-257.517,199.001-318.349
		c37.909-22.758,79.643-37.698,123.521-43.17c27.119-111.878,74.125-213.42,136.045-298.719
		c119.209-164.082,293.88-267.534,488.513-267.534c267.966,0,497.966,196.221,597.853,476.611c12.618-1.563,25.367-2.75,38.269-2.75
		c188.737,0,341.582,185.421,341.582,413.984c0,2.316,0,4.256-0.151,6.254C2127.812,2281.324,2151.485,2292.935,2172.84,2308.57z"></path><path fill="#93E5B6" d="M1628.432 2308.57h729.811c-19.262-34.762-60.194-23.984-104.259-24.912-8.236-25.988-31.059-25.443-80.224-17.44 62.286-56.801 42.853-112.605-65.772-76.233 124.072-168.909-68.264-207.513-96.667-210.89-35.789-4.269-200.308 22.04-113.109 197.932-105.636-43.843-134.536 7.979-54.812 99.162C1767.237 2279.76 1675.979 2296.488 1628.432 2308.57zM-78.559 2308.57h1274.703c-82.689-19.208-254.021-41.952-331.097-43.574-14.406-45.456-54.326-44.503-140.323-30.504 108.947-99.354 74.956-196.964-115.046-133.342 217.021-295.447-119.404-362.97-169.085-368.879-62.6-7.466-350.369 38.55-197.845 346.212-184.773-76.688-235.323 13.958-95.874 173.449C13.656 2258.177-33.615 2273.808-78.559 2308.57z"></path><path fill="#D7A28E" d="M1542.178,974.819l-50.614,116.177l14.267-240.511l-58.985-6.542c0,0-100.442,273.558-66.541,366.891
			c33.901,93.334,115.045,54.64,115.045,54.64l169.61-217.789L1542.178,974.819z"></path><path fill="#C18C7C" d="M1503.74 885.903l-68.098-9.684c6.708-20.126 11.202-32.276 11.202-32.276l58.985 6.582L1503.74 885.903zM1664.935 1047.73l-169.613 217.776c0 0-81.136 38.669-114.995-54.618-12.341-33.923-6.898-91.642 4.937-151.385 31.138 1.392 89.68 4.303 107.717 7.531l-1.392 23.986 9.114-20.948c12.088 2.721 68.541-3.545 66.516-11.393-1.646-6.329-28.48-29.048-43.479-41.517l18.417-42.34L1664.935 1047.73z"></path><path fill="#FFC439" d="M1716.862,837.826l-12.407-46.104l-42.861,10.435c0,0-125.198,142.961-147.757,159.88
			c-22.558,16.918,104.338,98.128,117.025,98.128C1643.548,1060.164,1716.862,837.826,1716.862,837.826z"></path><path fill="#DBA12C" d="M1689.934,878.624l-59.491,181.447c-7.911-0.822-47.087-24.05-78.414-47.971L1689.934,878.624z"></path><path fill="#FFC439" d="M1704.455,791.721c0,0,167.682-4.512,179.714,0c12.031,4.512,122.182,553.626,109.168,640.978
			c-13.013,87.351-493.415,60.095-489.277-14.667C1508.199,1343.27,1688.528,792.041,1704.455,791.721z"></path><path fill="#DBA12C" d="M2000.135,1375.625c-41.201-20.252-210.697-100.46-210.697-100.46l36.412-121.493
			c0,0,91.606,98.029,95.719,88.156c4.114-9.81-11.169-349.99-11.169-349.99l28.573,140.487
			C1954.163,1111.752,1989.565,1302.337,2000.135,1375.625z"></path><circle cx="1801.849" cy="897.179" r="10.741" fill="#009444"></circle><circle cx="1792.646" cy="1016.782" r="10.741" fill="#009444"></circle><circle cx="1781.905" cy="1146.111" r="10.741" fill="#009444"></circle><circle cx="1775.076" cy="1273.426" r="10.741" fill="#009444"></circle><circle cx="1768.248" cy="1400.74" r="10.741" fill="#009444"></circle><path fill="#009444" d="M1784.846,815.237c0.63-5.253-80.251,480.79-82.91,666.609l6.844-3.726
				C1708.78,1478.12,1767.88,956.738,1784.846,815.237z"></path><g><path fill="#11405C" d="M1874.334,554.733c0,0,7.955,49.242,9.835,65.298c1.88,16.056-28.279,17.092-15.737,25.379
					c12.541,8.287,11.413,49.722-12.837,49.204c-24.25-0.518-15.832,20.832-31.626,21.371c-15.793,0.539-79.473,7.633-86.804-5.315
					c-7.331-12.948,18.882-19.507-16.783-34.615c-35.666-15.107-37.053-34.789-23.388-46.701
					c13.665-11.913-2.59-25.435-5.509-38.846c-2.92-13.41,18.61-41.435,18.61-41.435S1850.212,527.761,1874.334,554.733z"></path><path fill="#D7A28E" d="M1750.618,688.048l0.827,89.085c0,0-10.416,37.582,42.717,38.039
					c53.132,0.457,44.687-35.16,44.687-35.16l-11.206-91.964H1750.618z"></path><path fill="#C18C7C" d="M1838.848,780.012l-11.205-91.964h-77.025l0.278,29.905c1.457,2.094,24.36,21.36,66.007,12.72
					c1.477-0.306,3.028-0.05,4.535-0.019c0.907,0.018,1.885,0.173,2.531,0.871c1.399,1.513,0.883,4.163-0.123,5.733
					c-1.164,1.818-3.097,3.09-4.962,4.095c-2.063,1.113-4.27,1.945-6.503,2.645c-13.832,4.333-28.251,6.816-42.66,8.173
					c-6.155,0.58-12.323,0.954-18.497,1.2l0.22,23.76c0,0-10.416,37.583,42.717,38.039
					C1847.293,815.629,1838.848,780.012,1838.848,780.012z"></path><path fill="#009444" d="M1720.382,791.402c0.422-12.084,6.742-46.173,18.218-35.25c11.477,10.924,87.757-5.094,105.085-2.128
					c17.327,2.966,21.151,33.221,22.32,41.625c1.17,8.405-56.253,45.337-86.547,46.457
					C1749.163,843.228,1720.382,791.402,1720.382,791.402z"></path><path fill="#D7A28E" d="M1703.788,568.14c0,0-11.717-10.594-27.996-3.268c-17.78,8.001,5.011,53.158,16.539,53.155
								c11.131-0.002,13.247-6.161,13.01-14.818C1704.936,588.377,1703.788,568.14,1703.788,568.14z"></path><path fill="#11405C" d="M1685.172,573.371c5.402,3.609,15.697,16.394,10.144,26.929c0,0-0.385-6.827-4.274-10.751
								l-9.382-3.602l9.07-1.223L1685.172,573.371z"></path><path fill="#D7A28E" d="M1870.001,568.14c0,0,11.717-10.594,27.996-3.268c17.78,8.001-5.01,53.158-16.538,53.155
								c-11.131-0.002-13.246-6.161-13.01-14.818C1868.854,588.377,1870.001,568.14,1870.001,568.14z"></path><path fill="#11405C" d="M1888.618,573.371c-5.402,3.609-15.698,16.394-10.145,26.929c0,0,0.385-6.827,4.274-10.751
								l9.382-3.602l-9.07-1.223L1888.618,573.371z"></path><path fill="#D7A28E" d="M1878.05,513.747h-174.848c-6.962,30.429-10.778,202.78,87.116,208.557
							C1889.261,728.144,1880.926,531.669,1878.05,513.747z"></path><path fill="#11405C" d="M1791.845 599.977c-.125.013 12.403 31.762-2.392 35.481-.482.139-.437.751.13 1.399.566.649 1.413.973 1.921.952C1813.275 636.915 1792.397 599.919 1791.845 599.977zM1735.124 568.022c-.881.02-1.755.042-2.132-.762-.378-.799-.039-1.755.76-2.132 29.308-13.913 42.575 4.393 42.706 4.579C1776.961 570.429 1760.521 567.465 1735.124 568.022zM1849.545 566.143c.881.02 1.754.041 2.132-.762.377-.799.039-1.755-.761-2.132-29.308-13.914-42.574 4.393-42.706 4.578C1807.708 568.549 1824.148 565.585 1849.545 566.143z"></path><path fill="#FCFAF7" d="M1824.846,658.592c0,0-26.359,16.105-59.438,5.423
								C1759.912,677.887,1801.171,707.142,1824.846,658.592z"></path><path fill="#11405C" d="M1839.212 595.079c-.127 6.392-3.291 11.581-7.911 12.151-5.19.696-10.189-5-11.139-12.594-.949-7.658 2.531-14.366 7.721-14.999 2.658-.316 5.316 1.012 7.342 3.353-2.279 1.014-3.735 3.735-3.418 6.646.443 3.544 3.291 6.075 6.329 5.697C1838.515 595.267 1838.895 595.205 1839.212 595.079zM1754.658 609.065c-5.253.633-10.253-5.063-11.139-12.658-.949-7.657 2.468-14.303 7.721-15 2.089-.253 4.177.507 5.949 2.089-1.709 1.266-2.721 3.608-2.405 6.139.38 3.544 3.228 6.075 6.266 5.697.506-.065.949-.19 1.393-.38C1763.076 602.23 1759.658 608.368 1754.658 609.065z"></path><path fill="#C18C7C" d="M1792.914,697.747c2.587-0.321,4.223-0.911,4.394-0.976c0.64-0.24,0.961-0.944,0.727-1.582
								c-0.24-0.638-0.955-0.963-1.585-0.728c-0.102,0.042-10.546,3.749-21.335-3.489c-0.58-0.366-1.339-0.218-1.714,0.338
								c-0.377,0.567-0.223,1.334,0.338,1.715C1781.239,698.05,1788.481,698.294,1792.914,697.747z"></path><path fill="#11405C" d="M1783.885 487.377c-29.422 5.711-31.453 1.54-60.773 7.741-14.301 93.264 133.277 19.984 133.277 19.984-8.295 49.171 22.678 61.281 22.678 61.281 12.669-19.04 7.907-43.783-5.13-80.316C1869.172 495.553 1810.546 482.202 1783.885 487.377zM1716.788 495.589c0 0-1.555 59.774-16.277 82.079 0 0-7.253-13.921-.927-51.248C1705.91 489.095 1716.788 495.589 1716.788 495.589z"></path><g><path fill="#009444" d="M1880.55,494.828c-14.108-31.809-44.802-60.66-91.124-58.192
						c-46.157,2.459-77.748,31.818-89.656,61.921c-6.233,39.517-3.899,65.119-3.899,65.119s97.708-72.273,191.121,1.365
						C1886.992,565.04,1888.746,533.457,1880.55,494.828z"></path><path fill="#FFC439" d="M1696.751,565.545c0,0-6.771-56.795,96.725-58.692c102.72-1.882,92.126,58.597,92.126,58.597
							S1802.649,542.233,1696.751,565.545z"></path></g></g><g><path fill="#C18C7C" d="M1469.884,798.852c0,0,57.185-17.308,61.156-15.017c0,0,6.021,8.152-3.323,18.472
					c-5.047,5.574-33.39,20.386-33.39,20.386L1469.884,798.852z"></path><path fill="#2F627C" d="M1445.469,872.129l52.236,2.401c12.875,0.583,23.865-9.232,24.697-22.084
					c2.011-30.743,5.58-84.908,7.912-117.253c0.662-9.201-3.983-17.424-11.238-21.857l-9.635,0.402
					c-8.809,0.381-16.692,5.621-20.424,13.617l-53.362,114.132C1430.171,853.215,1435.205,866.338,1445.469,872.129z"></path><path fill="#2F627C" d="M1586.89,682.385c16.749,7.116,24.593,27.305,19.03,45.735l0,0
					c-5.573,18.431-23.291,30.901-41.174,27.548l-37.85-7.083l24.557-81.259L1586.89,682.385z"></path><path fill="#FFC439" d="M1353.002,532.381l206.531,129.645l15.366,9.646c5.109,3.21,7.714,9.202,6.629,15.133
					c-1.806,9.839-4.442,20.72-7.857,32.026c-3.457,11.431-7.334,22.055-11.325,31.32c-2.346,5.449-7.703,8.98-13.637,8.933
					l-18.33-0.155l-245.222-2.037L1353.002,532.381z"></path><path fill="#DBA12C" d="M1256.25,625.654c-18.735,61.993-5.791,120.752,28.905,131.236
					c30.203,9.128,66.926-21.303,88.287-70.217c3.197-7.293,6.04-15,8.473-23.043c3.2-10.605,5.479-21.105,6.872-31.299
					c6.8-49.386-7.01-91.254-35.785-99.951C1318.307,521.896,1274.99,563.65,1256.25,625.654z"></path><path fill="#2F627C" d="M1319.324,640.824c-4.509,14.927,3.925,30.676,18.85,35.188l35.268,10.661
					c3.197-7.293,6.04-15,8.473-23.043c3.2-10.605,5.479-21.105,6.872-31.299l-34.285-10.361
					c-7.457-2.249-15.137-1.268-21.497,2.143C1326.64,627.527,1321.58,633.369,1319.324,640.824z"></path></g><g><path fill="#D7A28E" d="M1446.305,763.096c15.748-1.29,62.176,11.093,62.176,11.093s1.536,8.523-0.252,11.217
				c-2.907,4.378-4.571,6.457-15.17,5.578c7.157,1.954,16.421,5.506,16.421,5.506s-1.516,10.164-4.047,12.204
				c-3.388,2.731-9.84,3.802-16.503,3.026c4.917,1.919,13.418,4.68,13.418,4.68s-0.218,9.61-3.031,11.252
				c-5.349,3.123-15.328,2.875-24.44,1.593c6.452,1.85,14.481,4.826,14.481,4.826s-0.805,9.354-3.32,10.91
				c-9.774,6.045-51.766,0.744-51.766,0.744c-9.166-8.353-19.241-31.528-13.845-42.32
				C1431.173,781.914,1440.095,763.614,1446.305,763.096z"></path><path fill="#C18C7C" d="M1454.232 785.451c-.016-.254 2.194-.665 5.793-.684 3.594-.013 8.552.359 13.942 1.232 10.793 1.725 19.242 4.439 19.092 4.986-.145.563-8.752-1.229-19.418-2.933-5.331-.863-10.172-1.456-13.686-1.816C1456.442 785.881 1454.248 785.77 1454.232 785.451zM1452.054 805.668c.009-.272 2.13-.456 5.539-.277 3.406.179 8.076.742 13.178 1.64 10.208 1.793 18.286 4.136 18.159 4.688-.129.566-8.377-.86-18.517-2.641-4.945-.848-9.418-1.615-12.981-2.226C1454.11 806.304 1452.044 805.97 1452.054 805.668zM1452.054 825.574c.094-.566 5.764-.095 12.663 1.052 6.9 1.147 12.416 2.536 12.322 3.102-.094.566-5.764.095-12.663-1.052C1457.477 827.53 1451.96 826.141 1452.054 825.574z"></path></g><g><path fill="#009444" d="M409.774,1346.438h1465.879c65.015,0,117.684,52.681,117.684,117.546v804.865
			c0,65.014-52.669,117.684-117.684,117.684H409.774c-64.876,0-117.546-52.67-117.546-117.684v-804.865
			C292.228,1399.119,344.897,1346.438,409.774,1346.438z"></path><path fill="#CDEEFF" d="M363.83,2268.88c0,1.832,0.106,3.564,0.313,5.396c2.642,23.123,22.289,40.599,45.682,40.599h1465.75
			c23.392,0,43.039-17.476,45.694-40.65c0.201-1.78,0.301-3.512,0.301-5.344v-804.866c0-4.077-0.57-8.167-1.706-12.195
			c-5.445-19.935-23.643-33.787-44.288-33.787H409.825c-20.639,0-38.844,13.863-44.27,33.7c-1.154,4.115-1.725,8.205-1.725,12.282
			V2268.88z"></path><path fill="#FFF" d="M746.711,1652.785H553.607c-20.776,0-37.617,16.842-37.617,37.618v160.149
						c0,20.775,16.842,37.617,37.617,37.617h193.104c20.776,0,37.617-16.842,37.617-37.617v-160.149
						C784.328,1669.627,767.486,1652.785,746.711,1652.785z"></path><polygon fill="#009444" points="603.809 1872.3 721.544 1851.311 699.084 1681.565 596.142 1690.527"></polygon><polygon fill="#097C3A" points="596.142 1690.527 591.468 1694.531 588.043 1691.233 578.774 1861.338 587.884 1863.419 603.809 1872.3"></polygon><path fill="#097C3A" d="M672.73 1708.417c0 2.458 1.423 4.451 3.18 4.451 1.756 0 3.18-1.993 3.18-4.451 0-2.459-1.424-4.452-3.18-4.452C674.153 1703.966 672.73 1705.958 672.73 1708.417zM632.84 1710.344c0 2.384 1.381 4.317 3.083 4.317 1.703 0 3.083-1.933 3.083-4.317 0-2.383-1.38-4.316-3.083-4.316C634.221 1706.027 632.84 1707.96 632.84 1710.344z"></path><path fill="#CDEEFF" d="M677.669,1708.308c1.181,6.938,2.362,13.876,3.543,20.814c1.015,5.96,2.327,11.975,2.545,18.033
								c0.392,10.893-4.885,20.091-14.966,24.553c-5.114,2.263-10.769,3.066-16.329,3.002c-4.164-0.047-9.065-0.408-11.705-4.107
								c-2.993-4.192-0.006-8.409,2.938-11.655c3.445-3.798,11.521-6.968,11.208-12.846c-0.215-4.026-3.338-7.06-5.919-9.808
								c-2.124-2.261-4.137-4.61-5.984-7.103c-3.326-4.492-8.694-11.256-8.031-17.213c0.172-1.538,2.606-1.556,2.433,0
								c-0.563,5.057,4.195,11.121,7.031,15.07c2.981,4.15,6.809,7.528,9.867,11.584c2.3,3.052,3.897,7.059,2.542,10.86
								c-1.356,3.802-5.224,5.697-8.162,8.086c-2.067,1.681-4.068,3.676-5.514,5.922c-2.418,3.754-0.449,7.021,3.535,8.198
								c4.985,1.473,11.52,0.67,16.444-0.605c11.252-2.914,18.459-11.627,18.201-23.37c-0.137-6.239-1.543-12.452-2.587-18.585
								c-1.146-6.728-2.291-13.456-3.436-20.183C675.062,1707.424,677.406,1706.765,677.669,1708.308L677.669,1708.308z"></path><g><path fill="#FFF" d="M831.336 1725.861h196.356c5.682 0 10.292-4.61 10.292-10.298s-4.61-10.294-10.292-10.294H831.336c-5.686 0-10.3 4.606-10.3 10.294S825.65 1725.861 831.336 1725.861zM1060.865 1725.861h27.999c5.684 0 10.294-4.61 10.294-10.298s-4.611-10.294-10.294-10.294h-27.999c-5.684 0-10.296 4.606-10.296 10.294S1055.181 1725.861 1060.865 1725.861zM874.223 1815.09h-42.887c-5.686 0-10.3 4.608-10.3 10.294 0 5.69 4.614 10.3 10.3 10.3h42.887c5.685 0 10.294-4.61 10.294-10.3C884.517 1819.698 879.907 1815.09 874.223 1815.09zM980.615 1815.09h-73.215c-5.686 0-10.296 4.608-10.296 10.294 0 5.69 4.61 10.3 10.296 10.3h73.215c5.686 0 10.298-4.61 10.298-10.3C990.913 1819.698 986.302 1815.09 980.615 1815.09zM1088.864 1760.18H970.317c-5.684 0-10.294 4.61-10.294 10.294 0 5.688 4.61 10.294 10.294 10.294h118.547c5.684 0 10.294-4.605 10.294-10.294C1099.159 1764.789 1094.548 1760.18 1088.864 1760.18zM831.336 1780.768h105.803c5.688 0 10.3-4.605 10.3-10.294 0-5.685-4.612-10.294-10.3-10.294H831.336c-5.686 0-10.3 4.61-10.3 10.294C821.036 1776.162 825.65 1780.768 831.336 1780.768z"></path></g><g><path fill="#FFF" d="M746.711,1967.339H553.607c-20.776,0-37.617,16.842-37.617,37.618v160.149
						c0,20.775,16.842,37.617,37.617,37.617h193.104c20.776,0,37.617-16.842,37.617-37.617v-160.149
						C784.328,1984.182,767.486,1967.339,746.711,1967.339z"></path><polygon fill="#91C4F6" points="603.809 2186.854 721.544 2165.865 699.084 1996.119 596.142 2005.082"></polygon><polygon fill="#549BEC" points="596.142 2005.082 591.468 2009.086 588.043 2005.788 578.774 2175.892 587.884 2177.974 603.809 2186.854"></polygon><path fill="#549BEC" d="M672.73 2022.971c0 2.459 1.423 4.452 3.18 4.452 1.756 0 3.18-1.993 3.18-4.452 0-2.458-1.424-4.451-3.18-4.451C674.153 2018.52 672.73 2020.513 672.73 2022.971zM632.84 2024.898c0 2.384 1.381 4.317 3.083 4.317 1.703 0 3.083-1.933 3.083-4.317 0-2.383-1.38-4.316-3.083-4.316C634.221 2020.582 632.84 2022.515 632.84 2024.898z"></path><path fill="#CDEEFF" d="M677.669,2022.863c1.181,6.938,2.362,13.876,3.543,20.814c1.015,5.96,2.327,11.975,2.545,18.033
								c0.392,10.893-4.885,20.091-14.966,24.553c-5.114,2.263-10.769,3.066-16.329,3.002c-4.164-0.048-9.065-0.408-11.705-4.107
								c-2.993-4.192-0.006-8.41,2.938-11.655c3.445-3.798,11.521-6.968,11.208-12.847c-0.215-4.026-3.338-7.06-5.919-9.807
								c-2.124-2.261-4.137-4.61-5.984-7.104c-3.326-4.492-8.694-11.255-8.031-17.213c0.172-1.538,2.606-1.556,2.433,0
								c-0.563,5.057,4.195,11.121,7.031,15.07c2.981,4.15,6.809,7.527,9.867,11.584c2.3,3.052,3.897,7.059,2.542,10.86
								c-1.356,3.802-5.224,5.697-8.162,8.086c-2.067,1.681-4.068,3.676-5.514,5.923c-2.418,3.754-0.449,7.02,3.535,8.198
								c4.985,1.473,11.52,0.67,16.444-0.605c11.252-2.914,18.459-11.627,18.201-23.371c-0.137-6.239-1.543-12.452-2.587-18.585
								c-1.146-6.728-2.291-13.456-3.436-20.183C675.062,2021.978,677.406,2021.32,677.669,2022.863L677.669,2022.863z"></path><g><path fill="#FFF" d="M831.336 2040.416h196.356c5.682 0 10.292-4.61 10.292-10.298s-4.61-10.294-10.292-10.294H831.336c-5.686 0-10.3 4.606-10.3 10.294S825.65 2040.416 831.336 2040.416zM1060.865 2040.416h27.999c5.684 0 10.294-4.61 10.294-10.298s-4.611-10.294-10.294-10.294h-27.999c-5.684 0-10.296 4.606-10.296 10.294S1055.181 2040.416 1060.865 2040.416zM874.223 2129.645h-42.887c-5.686 0-10.3 4.608-10.3 10.294 0 5.69 4.614 10.3 10.3 10.3h42.887c5.685 0 10.294-4.61 10.294-10.3C884.517 2134.253 879.907 2129.645 874.223 2129.645zM980.615 2129.645h-73.215c-5.686 0-10.296 4.608-10.296 10.294 0 5.69 4.61 10.3 10.296 10.3h73.215c5.686 0 10.298-4.61 10.298-10.3C990.913 2134.253 986.302 2129.645 980.615 2129.645zM1088.864 2074.734H970.317c-5.684 0-10.294 4.61-10.294 10.294 0 5.688 4.61 10.294 10.294 10.294h118.547c5.684 0 10.294-4.605 10.294-10.294C1099.159 2079.344 1094.548 2074.734 1088.864 2074.734zM831.336 2095.323h105.803c5.688 0 10.3-4.605 10.3-10.294 0-5.685-4.612-10.294-10.3-10.294H831.336c-5.686 0-10.3 4.61-10.3 10.294C821.036 2090.717 825.65 2095.323 831.336 2095.323z"></path></g></g><g><path fill="#FFF" d="M1454.619 1726.857v123.665c0 20.822-16.835 37.657-37.593 37.657h-193.093c-20.822 0-37.657-16.835-37.657-37.657v-160.119c0-20.759 16.835-37.594 37.657-37.594h163.79c-.886 3.038-3.164 5.633-6.582 6.646-9.24 2.721-9.24 15.822 0 18.543 6.519 1.962 9.05 9.81 4.937 15.19-1.456 1.835-2.025 3.86-2.025 5.886 0 6.075 6.076 11.581 12.911 9.113 6.392-2.278 13.101 2.595 12.911 9.367-.253 9.62 12.215 13.67 17.657 5.759 1.899-2.847 4.937-4.24 7.974-4.24s6.076 1.393 7.974 4.24C1446.265 1727.363 1450.822 1728.25 1454.619 1726.857zM1501.636 1725.861h196.355c5.683 0 10.292-4.61 10.292-10.298s-4.61-10.294-10.292-10.294h-196.355c-5.687 0-10.3 4.606-10.3 10.294S1495.949 1725.861 1501.636 1725.861zM1731.165 1725.861h27.999c5.684 0 10.294-4.61 10.294-10.298s-4.61-10.294-10.294-10.294h-27.999c-5.684 0-10.296 4.606-10.296 10.294S1725.481 1725.861 1731.165 1725.861zM1544.523 1815.09h-42.887c-5.687 0-10.3 4.608-10.3 10.294 0 5.69 4.614 10.3 10.3 10.3h42.887c5.684 0 10.294-4.61 10.294-10.3C1554.817 1819.698 1550.207 1815.09 1544.523 1815.09zM1650.915 1815.09H1577.7c-5.686 0-10.296 4.608-10.296 10.294 0 5.69 4.611 10.3 10.296 10.3h73.215c5.686 0 10.298-4.61 10.298-10.3C1661.213 1819.698 1656.601 1815.09 1650.915 1815.09zM1759.164 1760.18h-118.547c-5.684 0-10.294 4.61-10.294 10.294 0 5.688 4.61 10.294 10.294 10.294h118.547c5.684 0 10.294-4.605 10.294-10.294C1769.458 1764.789 1764.848 1760.18 1759.164 1760.18zM1501.636 1780.768h105.803c5.688 0 10.3-4.605 10.3-10.294 0-5.685-4.612-10.294-10.3-10.294h-105.803c-5.687 0-10.3 4.61-10.3 10.294C1491.336 1776.162 1495.949 1780.768 1501.636 1780.768z"></path><g><polygon fill="#FFC439" points="1234.106 1728.526 1319.686 1710.344 1405.265 1722.901 1321.193 1751.892"></polygon><polygon fill="#DBA12C" points="1323.519 1839.031 1406.81 1818.693 1405.265 1722.901 1320.898 1740.853"></polygon><polygon fill="#CDEEFF" points="1272.4 1720.39 1299.176 1714.86 1375.019 1728.84 1375.94 1748.088 1365.4 1751.344 1363.446 1748.207 1362.422 1752.655 1354.375 1755.437 1354.107 1734.824" opacity=".5"></polygon><polygon fill="#CDEEFF" points="1363.521 1829.298 1363.473 1814.354 1368.64 1813.351 1369.777 1815.177 1370.372 1812.621 1383.887 1808.787 1385.473 1823.925" opacity=".5"></polygon><polygon fill="#FFC439" points="1234.106 1728.526 1236.858 1826.924 1323.519 1839.031 1320.898 1740.853"></polygon><path fill="#DBA12C" d="M1234.106,1728.526l86.792,12.327c0,0-27.078,3.186-45.061,0S1234.106,1728.526,1234.106,1728.526z"></path></g><path fill="#FFF" d="M1472.52,1662.419L1472.52,1662.419c-4.439-1.307-6.18-6.666-3.357-10.332
					c4.005-5.203-1.239-12.42-7.425-10.22l0,0c-4.36,1.551-8.917-1.76-8.789-6.386l0,0c0.182-6.564-8.303-9.321-12.014-3.904
					c-2.616,3.818-8.249,3.818-10.864,0l0,0c-3.711-5.417-12.196-2.66-12.014,3.904l0,0c0.128,4.626-4.429,7.937-8.789,6.386l0,0
					c-6.186-2.201-11.43,5.017-7.425,10.22l0,0c2.822,3.667,1.082,9.025-3.357,10.332c-6.298,1.856-6.298,10.777,0,12.632
					c4.439,1.307,6.18,6.666,3.357,10.332l0,0c-4.005,5.204,1.239,12.421,7.425,10.22c4.36-1.551,8.917,1.76,8.789,6.386
					c-0.182,6.564,8.303,9.32,12.014,3.904l0,0c2.615-3.818,8.248-3.818,10.864,0c3.711,5.417,12.196,2.66,12.014-3.904
					c-0.128-4.626,4.43-7.937,8.789-6.386c6.186,2.201,11.43-5.016,7.425-10.22c-2.823-3.667-1.082-9.025,3.357-10.332h0.001
					C1478.818,1673.195,1478.818,1664.274,1472.52,1662.419z"></path></g><g><path fill="#FFF" d="M1417.01 1967.339h-193.104c-20.776 0-37.617 16.842-37.617 37.618v160.149c0 20.775 16.842 37.617 37.617 37.617h193.104c20.776 0 37.617-16.842 37.617-37.617v-160.149C1454.628 1984.182 1437.786 1967.339 1417.01 1967.339zM1501.636 2040.416h196.355c5.683 0 10.292-4.61 10.292-10.298s-4.61-10.294-10.292-10.294h-196.355c-5.687 0-10.3 4.606-10.3 10.294S1495.949 2040.416 1501.636 2040.416zM1731.165 2040.416h27.999c5.684 0 10.294-4.61 10.294-10.298s-4.61-10.294-10.294-10.294h-27.999c-5.684 0-10.296 4.606-10.296 10.294S1725.481 2040.416 1731.165 2040.416zM1544.523 2129.645h-42.887c-5.687 0-10.3 4.608-10.3 10.294 0 5.69 4.614 10.3 10.3 10.3h42.887c5.684 0 10.294-4.61 10.294-10.3C1554.817 2134.253 1550.207 2129.645 1544.523 2129.645zM1650.915 2129.645H1577.7c-5.686 0-10.296 4.608-10.296 10.294 0 5.69 4.611 10.3 10.296 10.3h73.215c5.686 0 10.298-4.61 10.298-10.3C1661.213 2134.253 1656.601 2129.645 1650.915 2129.645zM1759.164 2074.734h-118.547c-5.684 0-10.294 4.61-10.294 10.294 0 5.688 4.61 10.294 10.294 10.294h118.547c5.684 0 10.294-4.605 10.294-10.294C1769.458 2079.344 1764.848 2074.734 1759.164 2074.734zM1501.636 2095.323h105.803c5.688 0 10.3-4.605 10.3-10.294 0-5.685-4.612-10.294-10.3-10.294h-105.803c-5.687 0-10.3 4.61-10.3 10.294C1491.336 2090.717 1495.949 2095.323 1501.636 2095.323z"></path><g><rect width="138.365" height="138.365" x="1241.948" y="2022.945" fill="#FFC439"></rect><path fill="#CDEEFF" d="M1333.795,2161.152v-36.817l-4.073,3.115l-2.396-3.115l-4.073-1.437l-4.253,5.03
						l-2.457-6.708l-6.094,11.589l-3.968-9.672l-2.635,4.074l-3.354-5.991c0,0-1.137,28.428-1.94,39.932
						C1310.302,2161.728,1322.049,2160.495,1333.795,2161.152z" opacity=".5"></path><polygon fill="#DBA12C" points="1241.948 2022.945 1276.211 2017.23 1399.841 2017.23 1380.314 2022.945"></polygon><polygon fill="#DBA12C" points="1399.848 2017.221 1399.848 2151.636 1396.041 2153.519 1388.7 2157.165 1380.305 2161.316 1380.305 2022.956"></polygon><path fill="#CDEEFF" d="M1296.336,2022.945v41.45l4.074-3.115l2.396,3.115l4.073,1.437l4.253-5.031l2.456,6.708
						l7.188-22.281l2.875,20.365l2.636-4.073l3.355,5.989c0,0,1.677-41.929,2.396-44.564l9.344-5.031l-9.584,1.197l-0.24-1.197
						h-20.426L1296.336,2022.945z" opacity=".5"></path><polygon fill="#CDEEFF" points="1376.974 2021.121 1386.76 2020.991 1387.263 2041.565 1388.89 2038.93 1389.511 2039.769 1390.99 2038.003 1392.375 2039.05 1394.343 2037.189 1394.343 2018.836 1384.52 2017.886 1385.344 2018.485 1383.802 2018.844 1382.639 2020.193" opacity=".5"></polygon><polygon fill="#CDEEFF" points="1396.041 2153.519 1388.7 2157.165 1389.067 2144.412 1390.696 2147.05 1391.59 2142.256 1393.196 2143.609 1393.517 2140.099 1395.536 2136.154" opacity=".5"></polygon><path fill="#CDEEFF" d="M1269.685,2018.318l11.213,0.124l-2.696,0.979l0.898,0.499c0,0-3.144,0.899-2.874,0.899
						c0.268,0,2.156,0.589,1.886,0.518c-0.27-0.069-4.448,0.12-4.448,0.12v0.528l-17.276-1.449L1269.685,2018.318z" opacity=".5"></path></g></g><g><path fill="#097C3A" d="M1841.451,1131.649v236.324H452.136v-236.324c0-18.291,14.906-33.178,33.218-33.178h1322.92
			C1826.624,1098.471,1841.451,1113.358,1841.451,1131.649z"></path><polygon fill="#009444" points="1523.495 1382.063 1270.014 1382.063 1195.286 1227.652 1394.575 1227.652"></polygon><polygon fill="#009444" points="700.272 1227.652 507.714 1382.063 254.128 1382.063 467.272 1227.652"></polygon><polygon fill="#009444" points="1097.99 1227.652 1015.774 1382.063 761.744 1382.063 897.995 1227.652"></polygon><polygon fill="#DBA12C" points="899.196 1227.652 761.744 1382.063 507.662 1382.063 699.436 1227.652"></polygon><polygon fill="#DBA12C" points="1777.864 1382.063 1523.286 1382.063 1394.054 1227.652 1593.082 1227.652"></polygon><polygon fill="#009444" points="2031.321 1382.063 1777.499 1382.063 1592.038 1227.652 1823.786 1227.652"></polygon><polygon fill="#DBA12C" points="1195.704 1227.652 1270.274 1382.063 1015.774 1382.063 1097.99 1227.652"></polygon><path fill="#097C3A" d="M507.767,1382.063v97.532c0,1.618,0,3.13-0.105,4.749c-1.878,89.547-57.923,161.352-126.858,161.352
			c-68.935,0-125.084-71.804-126.859-161.352c-0.157-1.618-0.157-3.131-0.157-4.749v-97.532H507.767z"></path><path fill="#FFC439" d="M761.744,1382.063v97.532c0,1.618,0,3.13-0.105,4.749c-1.852,89.547-57.923,161.352-126.858,161.352
			c-68.908,0-125.031-71.804-126.91-161.352c-0.104-1.618-0.104-3.131-0.104-4.749v-97.532H761.744z"></path><path fill="#097C3A" d="M1015.774,1382.063v97.532c0,1.618,0,3.13-0.156,4.749c-1.878,89.547-57.949,161.352-126.832,161.352
			c-68.962,0-125.085-71.804-126.937-161.352c-0.104-1.618-0.104-3.131-0.104-4.749v-97.532H1015.774z"></path><path fill="#FFC439" d="M1269.752,1382.063v97.532c0,1.618,0,3.13-0.104,4.749c-1.878,89.547-57.923,161.352-126.91,161.352
			c-68.882,0-125.032-71.804-126.911-161.352c-0.053-1.618-0.053-3.131-0.053-4.749v-97.532H1269.752z"></path><path fill="#097C3A" d="M1523.678 1382.063v97.532c0 1.618 0 3.13-.052 4.749-1.878 89.547-57.923 161.352-126.858 161.352-68.935 0-125.084-71.804-126.911-161.352-.105-1.618-.105-3.131-.105-4.749v-97.532H1523.678zM2031.659 1382.063v97.532c0 1.618 0 3.13-.078 4.749-1.879 89.547-57.976 161.352-126.858 161.352-68.935 0-125.033-71.804-126.938-161.352-.104-1.618-.104-3.131-.104-4.749v-97.532H2031.659z"></path><path fill="#FFC439" d="M1777.681,1382.063v97.532c0,1.618,0,3.13-0.078,4.749c-1.879,89.547-57.95,161.352-126.858,161.352
			c-68.934,0-125.059-71.804-126.911-161.352c-0.156-1.618-0.156-3.131-0.156-4.749v-97.532H1777.681z"></path><path fill="#FFF" d="M253.945 1484.344h-.157v-4.749C253.788 1481.213 253.788 1482.725 253.945 1484.344zM507.767 1479.595v4.749h-.105C507.767 1482.725 507.767 1481.213 507.767 1479.595z"></path></g></g><g><path fill="#DCF4E6" d="M1995.597,1640.635L1348.5,1487.203c-8.227-1.951-13.315-10.201-11.365-18.429l53.058-223.771
				c1.95-8.228,10.201-13.316,18.429-11.365l647.096,153.432c8.227,1.951,13.316,10.201,11.365,18.429l-53.058,223.771
				C2012.075,1637.498,2003.824,1642.587,1995.597,1640.635z"></path><path fill="#2F627C" d="M1574.574 1317.712l13.718 3.253-8.258 38.502 25.201-34.485 14.167 3.359-6.781 38.615 23.348-34.687 13.794 3.27-35.491 47.168-15.517-3.68 5.869-35.109-22.962 31.057-15.518-3.68L1574.574 1317.712zM1684.24 1354.404l-19.416-4.604-4.469 10.501 17.166 4.07-4.017 9.261-17.166-4.07-4.889 11.272 19.415 4.604-4.199 9.693-32.233-7.643 21.773-50.421 32.233 7.643L1684.24 1354.404zM1728.91 1400.072l-19.64-4.657-7.002 8.158-13.418-3.181 40.814-45.906 14.843 3.519-2.733 54.935-13.568-3.217L1728.91 1400.072zM1731.269 1369.752l-14.666 17.108 13.118 3.11L1731.269 1369.752zM1790.831 1368.988c12.894 3.057 16.307 11.705 12.489 20.46-2.689 6.331-8.887 11.432-18.001 11.805l3.529 22.848-14.467-3.43-2.711-21.625-3.075-.729-8.233 19.03-12.818-3.04 21.773-50.421L1790.831 1368.988zM1785.719 1378.862l-7.947-1.884-5.452 12.642 7.946 1.884c4.798 1.138 8.083-.697 9.81-4.642C1791.768 1383.067 1790.516 1380 1785.719 1378.862zM1846.225 1392.812l-19.416-4.604-4.469 10.501 17.166 4.071-4.017 9.26-17.166-4.07-4.889 11.272 19.415 4.604-4.199 9.694-32.233-7.643 21.773-50.421 32.233 7.643L1846.225 1392.812zM1487.586 1379.483c19.964 4.752 25.237 18.149 19.313 31.702-4.172 9.8-13.777 17.693-27.894 18.258l5.436 35.389-22.401-5.332-4.171-33.494-4.759-1.133-12.777 29.46-19.847-4.724 33.787-78.055L1487.586 1379.483zM1479.655 1394.765l-12.303-2.928-8.461 19.572 12.303 2.928c7.428 1.768 12.519-1.068 15.199-7.175C1489.018 1401.287 1487.083 1396.534 1479.655 1394.765zM1573.341 1416.451l-30.062-7.155-6.935 16.256 26.58 6.327-6.234 14.337-26.58-6.326-7.587 17.449 30.062 7.155-6.516 15.006-49.91-11.88 33.787-78.055 49.91 11.88L1573.341 1416.451zM1578.152 1435.38l51.071 12.156-6.941 15.764-51.071-12.156L1578.152 1435.38zM1664.839 1508.628c-20.893-4.973-31.274-22.161-26.439-42.473 6.879-28.901 31.678-44.462 59.883-37.749 21.241 5.056 31.561 21.984 26.754 42.181C1718.157 1499.488 1693.391 1515.424 1664.839 1508.628zM1672.221 1491.007c15.786 3.757 28.884-7.475 32.558-22.912 2.625-11.026-2.129-19.394-13.388-22.074-15.902-3.785-28.945 7.215-32.647 22.768C1656.12 1479.816 1660.73 1488.272 1672.221 1491.007zM1761.827 1499.948l-12.303-2.928-12.185 28.007-19.848-4.724 33.787-78.055 32.151 7.652c19.964 4.752 25.293 17.917 19.06 32.254C1796.963 1495.065 1782.604 1504.893 1761.827 1499.948zM1766.69 1484.671c8.008 1.906 12.95-1.333 15.602-7.325 2.653-5.991.978-10.805-6.915-12.684l-10.795-2.569-8.571 20.036L1766.69 1484.671zM1867.095 1486.37l-30.062-7.155-6.935 16.256 26.58 6.327-6.234 14.337-26.58-6.326-7.587 17.449 30.061 7.155-6.515 15.006-49.91-11.879 33.787-78.055 49.91 11.88L1867.095 1486.37zM1959.381 1491.779l-33.787 78.055-19.847-4.724-12.296-56.032-20.9 48.131-19.848-4.724 33.787-78.055 19.848 4.724 12.241 56.265 20.955-48.363L1959.381 1491.779z"></path><g><path fill="#D7A28E" d="M1847.545,1630.942c0.106-0.261,0.221-0.395,0.461-0.54c-0.01-0.125,0.116-0.135,0.116-0.135
				c8.652-13.271,17.823-27.968,20.478-35.857c6.442-19.015,40.117-69.632,40.117-69.632s-58.625-31.409-63.27-34.445
				c-3.849,7.101-17.751,32.117-17.751,32.117c-20.767,12.963-40.798,14.409-71.013,30.506
				c-0.408,10.862,10.579,11.258,10.579,11.258l33.842,1.247l-25.398,55.005c3.2,2.266,10.214,6.627,15.008,5.118
				c4.57-7.536,8.795-14.668,9.793-16.383l-7.522,16.456c2.795,1.921,11.007,7.069,16.665,5.366
				c4.513-6.65,8.126-11.971,9.259-13.571l-6.266,13.21c2.88,1.411,12.659,5.679,18.209,2.6c3.276-4.79,5.754-8.51,6.542-9.705
				l-5.049,9.462C1834.571,1634.1,1843.27,1637.447,1847.545,1630.942z"></path><path fill="#C18C7C" d="M1803.918 1601.433c.859.42-.906 5.823-3.945 12.068-3.04 6.249-6.198 10.972-7.057 10.553-.862-.416.906-5.819 3.942-12.068C1799.897 1605.74 1803.056 1601.014 1803.918 1601.433zM1823.222 1608.715c.84.457-1.002 5.473-4.118 11.202-3.116 5.733-6.325 10.005-7.165 9.548s1.006-5.469 4.121-11.202C1819.176 1612.534 1822.382 1608.259 1823.222 1608.715zM1841.835 1614.015c.853.43-.446 4.704-2.893 9.541-2.454 4.836-5.134 8.408-5.986 7.973-.853-.43.442-4.704 2.896-9.541C1838.303 1617.152 1840.979 1613.581 1841.835 1614.015z"></path><path fill="#C18C7C" d="M1834.364 1611.205c.768-.68 3.077 1.035 6.018 2.03 2.927 1.083 5.651 1.111 5.942 2.007.403.902-2.996 2.712-7.095 1.256C1835.147 1615.023 1833.657 1611.704 1834.364 1611.205zM1816.906 1606.074c.772-.684 3.081 1.031 6.022 2.026 2.926 1.083 5.647 1.111 5.942 2.011.399.899-2.996 2.713-7.095 1.257C1817.692 1609.889 1816.199 1606.57 1816.906 1606.074zM1798.623 1599.346c.768-.684 3.082 1.035 6.019 2.03 2.93 1.082 5.654 1.11 5.941 2.007.403.903-2.996 2.713-7.091 1.256C1799.41 1603.164 1797.92 1599.845 1798.623 1599.346z"></path></g><path fill="#D7A28E" d="M1955.527,1077.283l124.793-89.619c0,0,100.661,150.566,107.641,177.396
			c6.981,26.83-291.385,378.226-291.385,378.226l-68.716-20.837l189.026-354.006L1955.527,1077.283z"></path><g><path fill="#C18C7C" d="M2017.156,1169.408c1.715-3.492,15.17-1.798,29.681-3.497c14.643-1.39,26.11-5.86,29.306-3.441
				c3.678,2.249-6.552,13.803-26.927,15.946C2028.868,1180.469,2015.298,1172.208,2017.156,1169.408z"></path></g><path fill="#FFC439" d="M1884.169,791.721c0,0,85.345,29.199,97.752,44.489c12.407,15.29,100.76,132.906,133.827,166.748
		c8.292,31.816-132.562,148.111-148.49,135.478c-5.949-4.719-53.22-158.354-53.22-158.354L1884.169,791.721z"></path></g><g><circle cx="2019.536" cy="685.497" r="54.646" fill="#F2CD33"></circle><path fill="#DBA12C" d="M2017.549,706.214c-3.915-0.387-8.211-2.183-11.1-4.876l3.338-5.004c3.014,2.374,6.028,3.978,9.493,3.978
				c4.168,0,6.221-2.053,6.221-5.516c0-8.469-17.449-7.25-17.449-19.311c0-5.965,3.721-10.198,9.496-11.225v-6.545h5.132v6.417
				c4.106,0.512,6.926,2.502,9.3,5.001l-3.785,4.299c-2.374-2.181-4.361-3.4-7.44-3.4c-3.466,0-5.581,1.797-5.581,5.132
				c0,7.699,17.449,6.158,17.449,19.117c0,6.093-3.594,10.586-9.943,11.739v6.608h-5.132V706.214z"></path><path fill="#F2CD33" d="M1168.244,921.744c6.455,37.283-18.536,72.739-55.82,79.193c-37.283,6.455-72.739-18.537-79.193-55.82
			c-6.455-37.283,18.536-72.739,55.82-79.193C1126.333,859.47,1161.789,884.461,1168.244,921.744z"></path><path fill="#DBA12C" d="M1102.712,959.448c-4.919,0.359-10.61-0.941-14.754-3.65l3.053-6.895
				c4.231,2.288,8.297,3.625,12.578,2.883c5.149-0.892,7.246-3.866,6.505-8.145c-1.811-10.463-23.105-5.224-25.685-20.123
				c-1.276-7.369,2.416-13.395,9.33-15.897l-1.399-8.085l6.34-1.098l1.372,7.927c5.181-0.246,9.091,1.609,12.558,4.189l-3.755,6.12
				c-3.399-2.187-6.115-3.268-9.919-2.609c-4.281,0.741-6.51,3.413-5.797,7.533c1.647,9.511,22.872,3.876,25.643,19.885
				c1.303,7.527-2.175,13.845-9.772,16.628l1.413,8.163l-6.34,1.097L1102.712,959.448z"></path><path fill="#FFC439" d="M2117.433,1869.605l-102.608-50.64l-35.316,36.605l-96.673,195.782l13.868,6.909l102.578,50.61
				l13.882,6.842l96.605-195.798L2117.433,1869.605z M2050.022,1876.81c-6.019-2.968-8.438-10.281-5.507-16.295
				c3.008-6.044,10.3-8.575,16.378-5.572c5.985,2.959,8.541,10.303,5.562,16.376
				C2063.418,1877.334,2056.102,1879.813,2050.022,1876.81z"></path><path fill="#DBA12C" d="M2016.577,1927.133l3.96-8.047l13.907,6.894l-3.894,8.06c10.824,8.49,12.456,20.842,5.148,35.54
					l-1.639,3.404l-16.177-7.962l2.188-4.506c3.865-7.761,2.218-12.262-3.203-14.891c-5.407-2.697-9.965-1.273-13.825,6.466
					c-10.999,22.308,21.848,39.885,6.457,70.946c-7.266,14.66-18.322,21.01-31.613,17.507l-3.902,7.941l-13.98-6.886l3.907-7.964
					c-11.025-8.532-12.523-21.021-5.244-35.748l3.722-7.416l16.037,7.955l-4.195,8.49c-3.797,7.775-1.799,12.28,3.623,14.91
					c5.441,2.702,10.243,1.613,14.076-6.156c11.043-22.346-21.809-39.9-6.47-70.878
					C1992.641,1930.185,2003.304,1923.868,2016.577,1927.133z"></path><g><path fill="#F2CD33" d="M568.351,1006.006l64.598,156.353c0,0,116.296-13.463,117.365-18.752
			c1.069-5.29-30.438-172.67-30.438-172.67L568.351,1006.006z"></path><path fill="#DBA12C" d="M653.344,1037.686c7.8-1.368,13.727,2.5,13.669,11.821c0.025,9.305-5.791,15.235-13.591,16.603
				c-7.883,1.383-13.809-2.486-13.833-11.792C639.646,1044.998,645.544,1039.054,653.344,1037.686z M679.681,1033.911l13.547-2.376
				l-31.733,65.151l-13.548,2.377L679.681,1033.911z M649.36,1052.604c0.006,3.893,1.458,5.415,3.921,4.983
				c2.463-0.432,4.049-2.487,4.044-6.38c-0.006-3.893-1.54-5.4-4.003-4.968C650.858,1046.67,649.354,1048.711,649.36,1052.604z
				 M687.918,1064.459c7.8-1.368,13.644,2.515,13.587,11.835c0.025,9.306-5.791,15.235-13.591,16.604s-13.726-2.5-13.669-11.821
				C674.22,1071.771,680.117,1065.828,687.918,1064.459z M683.852,1079.391c0.006,3.893,1.458,5.415,4.003,4.968
				c2.381-0.418,3.967-2.473,3.961-6.365c-0.006-3.892-1.54-5.4-3.921-4.982C685.431,1073.444,683.846,1075.499,683.852,1079.391z"></path></g><g><linearGradient id="a" x1="806.675" x2="806.675" y1="881.342" y2="758.44" gradientUnits="userSpaceOnUse"><stop offset=".037" stop-color="#d4c95e"></stop><stop offset="1" stop-color="#ff9444"></stop></linearGradient><polygon fill="url(#a)" points="806.676 790.238 697.469 822.112 806.676 896.527 915.881 822.112"></polygon><polygon fill="#009444" points="806.676 665.562 697.469 739.993 806.676 814.393 915.881 739.993"></polygon><polygon fill="#009444" points="806.676 814.441 806.676 896.574 697.517 824.537 697.517 739.977"></polygon><polygon fill="#097C3A" points="915.881 739.977 915.881 824.537 806.676 896.574 806.676 814.441"></polygon><polygon fill="#CDEEFF" points="736.112 773.279 848.805 693.633 873.721 710.608 764.166 785.435 764.166 868.425 736.112 850.007" opacity=".25"></polygon><polygon fill="#CDEEFF" points="880.821 771.091 764.514 694.663 739.631 711.654 852.799 783.248 852.799 866.269 880.821 847.836" opacity=".25"></polygon><path fill="#DBA12C" d="M979.852,536.798c-1.221-1.078-164.491,187.346-164.491,187.346s65.079-203.513,63.558-204.035
				c-1.489-0.476-72.243,212.072-72.243,212.072s-70.739-212.548-72.245-212.072c-1.537,0.523,63.51,204.035,63.51,204.035
				S634.704,535.72,633.5,536.798c-1.221,1.015-1.364,2.821-0.285,4.057L803.03,738.979c0.539,0.633,1.378,1.014,2.187,1.014
				c0.475,0,0.984-0.142,1.394-0.38c0.065-0.016,0.065-0.016,0.065-0.016s0.015,0,0.015,0.016c0.46,0.238,0.951,0.38,1.442,0.38
				c0.825,0,1.616-0.38,2.187-1.014l169.832-198.124C981.214,539.619,981.056,537.812,979.852,536.798z"></path><path fill="#DBA12C" d="M982.862,541.996c-22.11-6.34-46.916-11.522-73.654-15.311c-20.399-2.869-41.923-4.945-64.287-6.039
				c-12.949-0.682-26.232-1.015-39.704-1.015c-13.472,0-26.723,0.333-39.704,1.015c-22.364,1.094-43.889,3.17-64.288,6.039
				c-26.737,3.788-51.544,8.971-73.654,15.311c7.767-91.311,84.353-162.952,177.646-162.952
				C898.509,379.044,975.097,450.685,982.862,541.996z"></path><path fill="#F2CD33" d="M805.217 379.044c-19.543 0-35.853 60.721-39.704 141.603-22.364 1.094-43.889 3.17-64.288 6.039C709.832 442.84 753.102 379.044 805.217 379.044zM909.208 526.685c-20.399-2.869-41.923-4.945-64.287-6.039-3.852-80.882-20.161-141.603-39.704-141.603C857.331 379.044 900.601 442.84 909.208 526.685z"></path><g><path fill="#F2CD33" d="M783.49,786.291l-39.546-39.879l-22.222,11.381l-76.08,75.414l5.326,5.421l39.514,39.846l5.342,5.388
					l76.063-75.445L783.49,786.291z M751.061,778.905c-2.33-2.362-2.283-6.15,0.047-8.448c2.345-2.362,6.102-2.362,8.464,0
					c2.33,2.362,2.33,6.166-0.032,8.479C757.194,781.251,753.406,781.219,751.061,778.905z"></path><path fill="#DBA12C" d="M696.378 843.16c.491-.475.872-.918 1.109-1.331.238-.413.365-.728.428-1.109.047-.318 0-.635-.111-.856-.095-.285-.285-.555-.507-.761-.523-.508-1.158-.666-1.966-.555-.808.142-1.949.57-3.503 1.347-.681.349-1.378.635-2.139.92-.713.253-1.442.443-2.187.475-.73.031-1.475-.064-2.204-.285-.745-.254-1.506-.746-2.187-1.427-.713-.699-1.22-1.507-1.521-2.315-.317-.823-.412-1.679-.317-2.599.079-.872.365-1.728.856-2.679.459-.871 1.141-1.807 1.997-2.615 1.046-1.046 2.029-1.839 3.028-2.378.966-.538 1.806-.887 2.583-1.108l1.744 3.676c-.65.237-1.332.523-2.029.856-.713.38-1.395.889-2.14 1.649-.824.823-1.332 1.537-1.442 2.107-.142.571.047 1.127.475 1.617.301.237.618.428.92.491.365.032.697.032 1.094-.063.38-.047.84-.238 1.268-.412.444-.159.904-.396 1.427-.634 1.094-.523 2.061-.918 2.916-1.204.935-.318 1.744-.475 2.52-.475.761 0 1.522.126 2.22.49.681.333 1.442.841 2.14 1.569 1.442 1.427 2.044 3.076 1.823 4.85-.206 1.807-1.3 3.661-3.345 5.705-.697.699-1.331 1.237-1.949 1.712-.602.428-1.189.825-1.744 1.109-.539.349-1.046.555-1.474.73-.428.158-.808.301-1.109.381l-1.759-3.694c.682-.205 1.474-.555 2.33-1.03C694.524 844.841 695.427 844.111 696.378 843.16zM718.013 826.836c-.745-.365-1.427-.73-2.219-1.078-.761-.38-1.49-.728-2.251-1.094l-5.991 5.992c.38.746.729 1.506 1.094 2.235.38.761.729 1.521 1.094 2.187l-3.566 3.566c-1.078-2.202-2.044-4.28-2.948-6.229-.856-1.87-1.664-3.709-2.425-5.453-.745-1.711-1.411-3.392-2.076-4.976-.618-1.602-1.205-3.202-1.759-4.755l3.312-3.266c1.537.539 3.107 1.174 4.723 1.759 1.617.618 3.281 1.316 4.993 2.077 1.744.728 3.55 1.537 5.5 2.409 1.902.92 3.947 1.886 6.181 2.932L718.013 826.836zM702.005 819.148c.127.285.333.682.57 1.236.222.556.523 1.157.809 1.823.332.666.649 1.49 1.03 2.282.38.856.761 1.712 1.205 2.6l4.374-4.342c-.904-.461-1.775-.841-2.583-1.221-.84-.396-1.601-.713-2.283-1.046-.713-.285-1.331-.57-1.854-.775C702.75 819.449 702.338 819.243 702.005 819.148zM730.947 808.006l2.964 2.963-10.223 10.191-15.359-15.311 3.471-3.424 12.347 12.348L730.947 808.006zM736.098 808.734l-15.327-15.278 10.381-10.351 2.885 2.901-6.895 6.879 2.996 3.011 6.134-6.134 2.806 2.853-6.134 6.102 3.677 3.678 7.449-7.386 2.901 2.885L736.098 808.734z"></path></g><path fill="#CDEEFF" d="M758.318,769.144c0.68-0.702,24.065-27.086,45.928-33.241c1.458-0.411,4.585,3.951,3.887,4.09
			c-19.809,3.978-47.562,29.964-48.204,31.064C758.52,773.473,755.326,772.232,758.318,769.144z"></path></g></g></svg>